<?xml version="1.0" encoding="UTF-8" standalone="no"?>
<!-- Created with Inkscape (http://www.inkscape.org/) -->

<svg
   xmlns:dc="http://purl.org/dc/elements/1.1/"
   xmlns:cc="http://creativecommons.org/ns#"
   xmlns:rdf="http://www.w3.org/1999/02/22-rdf-syntax-ns#"
   xmlns:svg="http://www.w3.org/2000/svg"
   xmlns="http://www.w3.org/2000/svg"
   xmlns:sodipodi="http://sodipodi.sourceforge.net/DTD/sodipodi-0.dtd"
   xmlns:inkscape="http://www.inkscape.org/namespaces/inkscape"
   width="32"
   height="32"
   id="svg2"
   version="1.1"
   inkscape:version="0.48.3.1 r9886"
   sodipodi:docname="icon-info.svg"
   inkscape:export-filename="/home/dim/DmishinD/Dropbox/Projects/t2dca/html/images/icon-info-32.png"
   inkscape:export-xdpi="90"
   inkscape:export-ydpi="90">
  <defs
     id="defs4" />
  <sodipodi:namedview
     id="base"
     pagecolor="#ffffff"
     bordercolor="#666666"
     borderopacity="1.0"
     inkscape:pageopacity="0.0"
     inkscape:pageshadow="2"
     inkscape:zoom="3.5117188"
     inkscape:cx="100.64332"
     inkscape:cy="-10.73571"
     inkscape:document-units="px"
     inkscape:current-layer="layer1"
     showgrid="true"
     inkscape:snap-bbox="true"
     inkscape:window-width="1440"
     inkscape:window-height="711"
     inkscape:window-x="0"
     inkscape:window-y="27"
     inkscape:window-maximized="1">
    <inkscape:grid
       type="xygrid"
       id="grid3764"
       empspacing="5"
       visible="true"
       enabled="true"
       snapvisiblegridlinesonly="true" />
  </sodipodi:namedview>
  <metadata
     id="metadata7">
    <rdf:RDF>
      <cc:Work
         rdf:about="">
        <dc:format>image/svg+xml</dc:format>
        <dc:type
           rdf:resource="http://purl.org/dc/dcmitype/StillImage" />
        <dc:title></dc:title>
      </cc:Work>
    </rdf:RDF>
  </metadata>
  <g
     inkscape:label="Layer 1"
     inkscape:groupmode="layer"
     id="layer1"
     transform="translate(0,-1020.3622)">
    <g
       style="font-size:495.96963500999999042px;font-style:italic;font-variant:normal;font-weight:bold;font-stretch:normal;line-height:125%;letter-spacing:0px;word-spacing:0px;fill:#ffffff;fill-opacity:1;stroke:none;font-family:Gentium;-inkscape-font-specification:Gentium Bold Italic"
       id="text3755"
       transform="matrix(2.7999984,0,0,2.7999903,-5.1533973,-1841.9516)">
      <path
         id="path3761"
         style="fill:#ffffff;fill-opacity:1;fill-rule:evenodd"
         d="m 8.830501,1023.4635 c -3e-6,0.1282 -0.02061,0.2565 -0.06183,0.3847 -0.03664,0.1237 -0.0916,0.2382 -0.164884,0.3435 -0.07329,0.1008 -0.162596,0.1832 -0.267936,0.2474 -0.105345,0.064 -0.222137,0.096 -0.350377,0.096 -0.141986,0 -0.251908,-0.041 -0.329768,-0.1236 -0.07786,-0.082 -0.116794,-0.2015 -0.116792,-0.3573 -2e-6,-0.1236 0.02061,-0.2473 0.06183,-0.371 0.04122,-0.1282 0.09847,-0.245 0.171754,-0.3503 0.07328,-0.1054 0.160301,-0.1901 0.261066,-0.2542 0.105339,-0.069 0.222132,-0.1031 0.350377,-0.1031 0.14198,0 0.251903,0.043 0.329768,0.1305 0.07786,0.082 0.116789,0.2016 0.116792,0.3573 m -0.185494,8.1755 c -0.215268,0.1282 -0.409922,0.2404 -0.583963,0.3366 -0.169466,0.096 -0.325189,0.1763 -0.46717,0.2405 -0.141985,0.069 -0.270228,0.1191 -0.384728,0.1511 -0.114504,0.032 -0.222137,0.048 -0.322898,0.048 -0.155724,0 -0.279387,-0.073 -0.370987,-0.2198 -0.0916,-0.142 -0.137404,-0.3367 -0.137403,-0.584 -1e-6,-0.1374 0.01603,-0.3321 0.04809,-0.584 0.03664,-0.2565 0.08015,-0.5381 0.130533,-0.845 0.05038,-0.3114 0.105341,-0.6343 0.164883,-0.9687 0.05954,-0.3389 0.114501,-0.6595 0.164883,-0.9618 0.05038,-0.3069 0.0916,-0.5771 0.123663,-0.8107 0.03664,-0.2381 0.05496,-0.4145 0.05496,-0.529 -1e-6,-0.1053 -0.0069,-0.1878 -0.02061,-0.2473 -0.01374,-0.064 -0.03206,-0.1099 -0.05496,-0.1374 -0.0229,-0.032 -0.05267,-0.053 -0.08931,-0.062 -0.03664,-0.01 -0.07557,-0.014 -0.116793,-0.014 -0.03664,0 -0.09389,0.01 -0.171753,0.027 -0.07786,0.018 -0.155725,0.039 -0.233585,0.062 -0.07328,0.018 -0.139694,0.037 -0.199235,0.055 -0.054961,0.014 -0.082442,0.021 -0.082442,0.021 L 6,1026.3622 c 0.1923637,-0.087 0.3824377,-0.1695 0.5702227,-0.2473 0.192363,-0.082 0.370987,-0.1535 0.535871,-0.213 0.164882,-0.059 0.309155,-0.1076 0.43282,-0.1443 0.12366,-0.037 0.215262,-0.055 0.274806,-0.055 0.12824,0 0.217552,0.043 0.267936,0.1305 0.05496,0.087 0.08244,0.2359 0.08244,0.4466 -2e-6,0.1328 -0.01832,0.3297 -0.05496,0.5908 -0.03206,0.2565 -0.07557,0.545 -0.130533,0.8656 -0.05496,0.3206 -0.112214,0.6573 -0.171753,1.0099 -0.05954,0.3481 -0.116795,0.6825 -0.171754,1.0031 -0.05496,0.3206 -0.100764,0.6114 -0.137403,0.8725 -0.03206,0.2565 -0.04809,0.4511 -0.04809,0.584 -2e-6,0.1419 0.01374,0.245 0.04122,0.3091 0.03206,0.064 0.08702,0.096 0.164883,0.096 0.141981,0 0.277094,-0.018 0.405339,-0.055 0.13282,-0.037 0.293124,-0.094 0.480911,-0.1717 l 0.103052,0.2542 0,0 m 4.6240703,-3.6654 c 0,3.1559 -2.558375,5.7143 -5.7142893,5.7143 -3.1559143,0 -5.7142886,-2.5584 -5.7142886,-5.7143 0,-3.1559 2.5583743,-5.7143 5.7142886,-5.7143 3.1559143,0 5.7142893,2.5584 5.7142893,5.7143 z"
         inkscape:connector-curvature="0" />
    </g>
  </g>
</svg>
